{
	"asset":{
		"generator":"Khronos glTF Blender I/O v3.5.30",
		"version":"2.0"
	},
	"extensionsUsed":[
		"KHR_materials_specular",
		"KHR_materials_ior"
	],
	"scene":0,
	"scenes":[
		{
			"name":"Scene",
			"nodes":[
				0
			]
		}
	],
	"nodes":[
		{
			"mesh":0,
			"name":"Normal Bow"
		}
	],
	"materials":[
		{
			"doubleSided":true,
			"extensions":{
				"KHR_materials_specular":{
					"specularColorFactor":[
						0.258693558581534,
						0.258693558581534,
						0.258693558581534
					]
				},
				"KHR_materials_ior":{
					"ior":1.4500000476837158
				}
			},
			"name":"Material",
			"pbrMetallicRoughness":{
				"baseColorTexture":{
					"index":0
				},
				"metallicFactor":0
			}
		}
	],
	"meshes":[
		{
			"name":"Cylinder.001",
			"primitives":[
				{
					"attributes":{
						"POSITION":0,
						"TEXCOORD_0":1,
						"NORMAL":2
					},
					"indices":3,
					"material":0
				}
			]
		}
	],
	"textures":[
		{
			"sampler":0,
			"source":0
		}
	],
	"images":[
		{
			"mimeType":"image/png",
			"name":"normal_bow_texture",
			"uri":"normal_bow_texture.png"
		}
	],
	"accessors":[
		{
			"bufferView":0,
			"componentType":5126,
			"count":902,
			"max":[
				4.072240829467773,
				43.37233352661133,
				2.0596489906311035
			],
			"min":[
				-19.32717514038086,
				-43.37233352661133,
				-2.0596489906311035
			],
			"type":"VEC3"
		},
		{
			"bufferView":1,
			"componentType":5126,
			"count":902,
			"type":"VEC2"
		},
		{
			"bufferView":2,
			"componentType":5126,
			"count":902,
			"type":"VEC3"
		},
		{
			"bufferView":3,
			"componentType":5123,
			"count":2400,
			"type":"SCALAR"
		}
	],
	"bufferViews":[
		{
			"buffer":0,
			"byteLength":10824,
			"byteOffset":0,
			"target":34962
		},
		{
			"buffer":0,
			"byteLength":7216,
			"byteOffset":10824,
			"target":34962
		},
		{
			"buffer":0,
			"byteLength":10824,
			"byteOffset":18040,
			"target":34962
		},
		{
			"buffer":0,
			"byteLength":4800,
			"byteOffset":28864,
			"target":34963
		}
	],
	"samplers":[
		{
			"magFilter":9729,
			"minFilter":9987
		}
	],
	"buffers":[
		{
			"byteLength":33664,
			"uri":"normal_bow.bin"
		}
	]
}
